<svg id="visual" viewBox="0 0 450 800" width="450" height="800" xmlns="http://www.w3.org/2000/svg" xmlns:xlink="http://www.w3.org/1999/xlink" version="1.1"><path d="M0 129L26 129L26 193L53 193L53 17L79 17L79 113L106 113L106 17L132 17L132 169L159 169L159 89L185 89L185 161L212 161L212 41L238 41L238 33L265 33L265 105L291 105L291 41L318 41L318 57L344 57L344 57L371 57L371 129L397 129L397 193L424 193L424 41L450 41L450 81L450 0L450 0L424 0L424 0L397 0L397 0L371 0L371 0L344 0L344 0L318 0L318 0L291 0L291 0L265 0L265 0L238 0L238 0L212 0L212 0L185 0L185 0L159 0L159 0L132 0L132 0L106 0L106 0L79 0L79 0L53 0L53 0L26 0L26 0L0 0Z" fill="#232526"></path><path d="M0 289L26 289L26 369L53 369L53 249L79 249L79 385L106 385L106 153L132 153L132 329L159 329L159 289L185 289L185 217L212 217L212 81L238 81L238 193L265 193L265 281L291 281L291 313L318 313L318 337L344 337L344 369L371 369L371 345L397 345L397 273L424 273L424 129L450 129L450 233L450 79L450 39L424 39L424 191L397 191L397 127L371 127L371 55L344 55L344 55L318 55L318 39L291 39L291 103L265 103L265 31L238 31L238 39L212 39L212 159L185 159L185 87L159 87L159 167L132 167L132 15L106 15L106 111L79 111L79 15L53 15L53 191L26 191L26 127L0 127Z" fill="#2a2c2d"></path><path d="M0 393L26 393L26 537L53 537L53 281L79 281L79 393L106 393L106 289L132 289L132 417L159 417L159 457L185 457L185 393L212 393L212 137L238 137L238 273L265 273L265 369L291 369L291 337L318 337L318 425L344 425L344 401L371 401L371 385L397 385L397 409L424 409L424 169L450 169L450 377L450 231L450 127L424 127L424 271L397 271L397 343L371 343L371 367L344 367L344 335L318 335L318 311L291 311L291 279L265 279L265 191L238 191L238 79L212 79L212 215L185 215L185 287L159 287L159 327L132 327L132 151L106 151L106 383L79 383L79 247L53 247L53 367L26 367L26 287L0 287Z" fill="#323435"></path><path d="M0 761L26 761L26 625L53 625L53 745L79 745L79 465L106 465L106 761L132 761L132 433L159 433L159 745L185 745L185 617L212 617L212 561L238 561L238 729L265 729L265 689L291 689L291 481L318 481L318 657L344 657L344 745L371 745L371 681L397 681L397 601L424 601L424 697L450 697L450 761L450 375L450 167L424 167L424 407L397 407L397 383L371 383L371 399L344 399L344 423L318 423L318 335L291 335L291 367L265 367L265 271L238 271L238 135L212 135L212 391L185 391L185 455L159 455L159 415L132 415L132 287L106 287L106 391L79 391L79 279L53 279L53 535L26 535L26 391L0 391Z" fill="#393b3d"></path><path d="M0 801L26 801L26 801L53 801L53 801L79 801L79 801L106 801L106 801L132 801L132 801L159 801L159 801L185 801L185 801L212 801L212 801L238 801L238 801L265 801L265 801L291 801L291 801L318 801L318 801L344 801L344 801L371 801L371 801L397 801L397 801L424 801L424 801L450 801L450 801L450 759L450 695L424 695L424 599L397 599L397 679L371 679L371 743L344 743L344 655L318 655L318 479L291 479L291 687L265 687L265 727L238 727L238 559L212 559L212 615L185 615L185 743L159 743L159 431L132 431L132 759L106 759L106 463L79 463L79 743L53 743L53 623L26 623L26 759L0 759Z" fill="#414345"></path></svg>